# xmcd
#
# Track frame offsets:
#	150
#	21527
#	23616
#	36261
#	39657
#	55443
#	58202
#	69946
#	72768
#	90832
#	97002
#	127066
#	130203
#	142413
#	145907
#	159865
#	170253
#	188838
#	207071
#	209374
#	223675
#	226475
#	238477
#
# Disc length: 3277 seconds
#
# Revision: 0
# Processed by: cddbd v1.4PL0 Copyright (c) Steve Scherf et al.
# Submitted via: dBpowerAMP V4.0
#
DISCID=5e0ccb17
DTITLE=New Grass Revival - Illinois State University 1972
DYEAR=1972
DGENRE=bluegrass
TTITLE0=Grey Eagle
TTITLE1=1
TTITLE2=Orphan Annie
TTITLE3=2
TTITLE4=One Tin Soldier
TTITLE5=3
TTITLE6=Fox on the Run
TTITLE7=4
TTITLE8=Battle Hymn of the Republic
TTITLE9=5
TTITLE10=The Night They Drove Old Dixie Down
TTITLE11=6
TTITLE12=The Little Green Pill
TTITLE13=7
TTITLE14=A Door in the Summer
TTITLE15=8
TTITLE16=Cold Sailor
TTITLE17=9
TTITLE18=Body and Soul, Lonesome Fiddle Blues
TTITLE19=0
TTITLE20=Me and My Uncle
TTITLE21=Sittin' On Top of the World
TTITLE22=Orange Blossom Special
EXTD=
EXTT0=
EXTT1=
EXTT2=
EXTT3=
EXTT4=
EXTT5=
EXTT6=
EXTT7=
EXTT8=
EXTT9=
EXTT10=
EXTT11=
EXTT12=
EXTT13=
EXTT14=
EXTT15=
EXTT16=
EXTT17=
EXTT18=
EXTT19=
EXTT20=
EXTT21=
EXTT22=
PLAYORDER=
